<?xml version="1.0" encoding="utf-8"?>
<!-- Generator: Adobe Illustrator 19.0.0, SVG Export Plug-In . SVG Version: 6.00 Build 0)  -->
<svg version="1.1" id="Layer_1" xmlns="http://www.w3.org/2000/svg" xmlns:xlink="http://www.w3.org/1999/xlink" x="0px" y="0px"
	 viewBox="0 0 960 560" style="enable-background:new 0 0 960 560;" xml:space="preserve">
<style type="text/css">
	.st0{fill:#93278F;}
	.st1{fill:#EC008C;}
	.st2{fill:#D9E021;}
</style>
<g id="XMLID_3_">
	<path id="XMLID_2_" class="st0" d="M-0.3,469.1V91.3c0-53.4,57.3-87.1,104-61.3l341.9,188.9c48.3,26.7,48.3,96,0,122.7L103.6,530.4
		C56.9,556.2-0.3,522.5-0.3,469.1z"/>
	<path id="XMLID_4_" class="st0" d="M963.8,91.3v377.8c0,53.4-57.3,87.1-104,61.3L517.9,341.6c-48.3-26.7-48.3-96,0-122.7L859.9,30
		C906.6,4.2,963.8,38,963.8,91.3z"/>
	<circle id="XMLID_1_" class="st1" cx="483" cy="279.5" r="83.1"/>
</g>
<circle id="XMLID_5_" class="st2" cx="68.9" cy="222.3" r="42.6"/>
<circle id="XMLID_6_" class="st2" cx="68.9" cy="342.1" r="42.6"/>
<circle id="XMLID_7_" class="st2" cx="68.9" cy="462" r="42.6"/>
<circle id="XMLID_8_" class="st2" cx="76.9" cy="110.4" r="42.6"/>
<circle id="XMLID_12_" class="st2" cx="892" cy="238.3" r="42.6"/>
<circle id="XMLID_11_" class="st2" cx="892" cy="358.1" r="42.6"/>
<circle id="XMLID_10_" class="st2" cx="892" cy="478" r="42.6"/>
<circle id="XMLID_9_" class="st2" cx="900" cy="126.4" r="42.6"/>
<circle id="XMLID_16_" class="st2" cx="188.8" cy="158.3" r="42.6"/>
<circle id="XMLID_15_" class="st2" cx="188.8" cy="278.2" r="42.6"/>
<circle id="XMLID_14_" class="st2" cx="188.8" cy="398.1" r="42.6"/>
<circle id="XMLID_18_" class="st2" cx="764.1" cy="158.3" r="42.6"/>
<circle id="XMLID_17_" class="st2" cx="764.1" cy="278.2" r="42.6"/>
<circle id="XMLID_13_" class="st2" cx="764.1" cy="398.1" r="42.6"/>
<circle id="XMLID_21_" class="st2" cx="300.6" cy="222.3" r="42.6"/>
<circle id="XMLID_20_" class="st2" cx="300.6" cy="342.1" r="42.6"/>
<circle id="XMLID_22_" class="st2" cx="660.2" cy="214.3" r="42.6"/>
<circle id="XMLID_19_" class="st2" cx="660.2" cy="334.1" r="42.6"/>
</svg>
